solid OpenSCAD_Model
  facet normal -1 0 0
    outer loop
      vertex -3.5 -3.5 0
      vertex -3.5 8.5 0.299999
      vertex -3.5 8.5 0
    endloop
  endfacet
  facet normal -1 -0 0
    outer loop
      vertex -3.5 8.5 0.299999
      vertex -3.5 -3.5 0
      vertex -3.5 -3.5 0.299999
    endloop
  endfacet
  facet normal 0 0 1
    outer loop
      vertex 11.5 8.5 0.299999
      vertex 7.5 4.5 0.299999
      vertex 11.5 -3.5 0.299999
    endloop
  endfacet
  facet normal 0 0 1
    outer loop
      vertex 11.5 8.5 0.299999
      vertex 0.5 4.5 0.299999
      vertex 7.5 4.5 0.299999
    endloop
  endfacet
  facet normal 0 0 1
    outer loop
      vertex 0.5 4.5 0.299999
      vertex -3.5 8.5 0.299999
      vertex 0.5 0.5 0.299999
    endloop
  endfacet
  facet normal -0 0 1
    outer loop
      vertex -3.5 8.5 0.299999
      vertex 0.5 4.5 0.299999
      vertex 11.5 8.5 0.299999
    endloop
  endfacet
  facet normal -0 0 1
    outer loop
      vertex 7.5 0.5 0.299999
      vertex 11.5 -3.5 0.299999
      vertex 7.5 4.5 0.299999
    endloop
  endfacet
  facet normal -0 0 1
    outer loop
      vertex 0.5 0.5 0.299999
      vertex 11.5 -3.5 0.299999
      vertex 7.5 0.5 0.299999
    endloop
  endfacet
  facet normal 0 0 1
    outer loop
      vertex 0.5 0.5 0.299999
      vertex -3.5 -3.5 0.299999
      vertex 11.5 -3.5 0.299999
    endloop
  endfacet
  facet normal 0 0 1
    outer loop
      vertex -3.5 -3.5 0.299999
      vertex 0.5 0.5 0.299999
      vertex -3.5 8.5 0.299999
    endloop
  endfacet
  facet normal 1 -0 0
    outer loop
      vertex 11.5 -3.5 0.299999
      vertex 11.5 8.5 0
      vertex 11.5 8.5 0.299999
    endloop
  endfacet
  facet normal 1 0 0
    outer loop
      vertex 11.5 8.5 0
      vertex 11.5 -3.5 0.299999
      vertex 11.5 -3.5 0
    endloop
  endfacet
  facet normal 0 1 -0
    outer loop
      vertex 11.5 8.5 0
      vertex -3.5 8.5 0.299999
      vertex 11.5 8.5 0.299999
    endloop
  endfacet
  facet normal 0 1 0
    outer loop
      vertex -3.5 8.5 0.299999
      vertex 11.5 8.5 0
      vertex -3.5 8.5 0
    endloop
  endfacet
  facet normal 0 0 -1
    outer loop
      vertex 11.5 -3.5 0
      vertex 7.5 0.5 0
      vertex 11.5 8.5 0
    endloop
  endfacet
  facet normal 0 0 -1
    outer loop
      vertex 11.5 -3.5 0
      vertex 0.5 0.5 0
      vertex 7.5 0.5 0
    endloop
  endfacet
  facet normal -0 0 -1
    outer loop
      vertex 0.5 0.5 0
      vertex -3.5 -3.5 0
      vertex 0.5 4.5 0
    endloop
  endfacet
  facet normal 0 0 -1
    outer loop
      vertex -3.5 -3.5 0
      vertex 0.5 0.5 0
      vertex 11.5 -3.5 0
    endloop
  endfacet
  facet normal 0 0 -1
    outer loop
      vertex 7.5 4.5 0
      vertex 11.5 8.5 0
      vertex 7.5 0.5 0
    endloop
  endfacet
  facet normal 0 0 -1
    outer loop
      vertex 0.5 4.5 0
      vertex 11.5 8.5 0
      vertex 7.5 4.5 0
    endloop
  endfacet
  facet normal 0 0 -1
    outer loop
      vertex 0.5 4.5 0
      vertex -3.5 8.5 0
      vertex 11.5 8.5 0
    endloop
  endfacet
  facet normal 0 0 -1
    outer loop
      vertex -3.5 8.5 0
      vertex 0.5 4.5 0
      vertex -3.5 -3.5 0
    endloop
  endfacet
  facet normal 0 -1 0
    outer loop
      vertex -3.5 -3.5 0
      vertex 11.5 -3.5 0.299999
      vertex -3.5 -3.5 0.299999
    endloop
  endfacet
  facet normal 0 -1 -0
    outer loop
      vertex 11.5 -3.5 0.299999
      vertex -3.5 -3.5 0
      vertex 11.5 -3.5 0
    endloop
  endfacet
  facet normal 1 -0 0
    outer loop
      vertex 0.5 0.5 0.299999
      vertex 0.5 4.5 0
      vertex 0.5 4.5 0.299999
    endloop
  endfacet
  facet normal 1 0 0
    outer loop
      vertex 0.5 4.5 0
      vertex 0.5 0.5 0.299999
      vertex 0.5 0.5 0
    endloop
  endfacet
  facet normal -1 0 0
    outer loop
      vertex 7.5 0.5 0
      vertex 7.5 4.5 0.299999
      vertex 7.5 4.5 0
    endloop
  endfacet
  facet normal -1 -0 0
    outer loop
      vertex 7.5 4.5 0.299999
      vertex 7.5 0.5 0
      vertex 7.5 0.5 0.299999
    endloop
  endfacet
  facet normal 0 1 -0
    outer loop
      vertex 7.5 0.5 0
      vertex 0.5 0.5 0.299999
      vertex 7.5 0.5 0.299999
    endloop
  endfacet
  facet normal 0 1 0
    outer loop
      vertex 0.5 0.5 0.299999
      vertex 7.5 0.5 0
      vertex 0.5 0.5 0
    endloop
  endfacet
  facet normal 0 -1 0
    outer loop
      vertex 0.5 4.5 0
      vertex 7.5 4.5 0.299999
      vertex 0.5 4.5 0.299999
    endloop
  endfacet
  facet normal 0 -1 -0
    outer loop
      vertex 7.5 4.5 0.299999
      vertex 0.5 4.5 0
      vertex 7.5 4.5 0
    endloop
  endfacet
endsolid OpenSCAD_Model
